<svg height="512pt" viewBox="0 -31 512 512" width="512pt" xmlns="http://www.w3.org/2000/svg"><path d="m330.097656 430.199219h-148.195312l30-90c1.796875-6 7.5-10.199219 14.097656-10.199219h60c6.597656 0 12.300781 4.199219 14.097656 10.199219zm0 0" fill="#d3d3d8"/><path d="m330.097656 430.199219h-74.097656v-100.199219h30c6.597656 0 12.300781 4.199219 14.097656 10.199219zm0 0" fill="#babac0"/><path d="m512 45v255l-30 30h-452l-30-30v-255c0-24.902344 20.097656-45 45-45h422c24.902344 0 45 20.097656 45 45zm0 0" fill="#3e5959"/><path d="m512 45v255l-30 30h-226v-330h211c24.902344 0 45 20.097656 45 45zm0 0" fill="#384949"/><path d="m482 45v225h-452v-225c0-8.402344 6.597656-15 15-15h422c8.402344 0 15 6.597656 15 15zm0 0" fill="#00eed0"/><path d="m482 45v225h-226v-240h211c8.402344 0 15 6.597656 15 15zm0 0" fill="#00ddc1"/><path d="m512 300v15c0 24.902344-20.097656 45-45 45h-422c-24.902344 0-45-20.097656-45-45v-15zm0 0" fill="#ececf1"/><path d="m512 300v15c0 24.902344-20.097656 45-45 45h-211v-60zm0 0" fill="#e2e2e7"/><path d="m391 435c0 8.398438-6.597656 15-15 15h-240c-8.402344 0-15-6.601562-15-15 0-8.402344 6.597656-15 15-15h240c8.402344 0 15 6.597656 15 15zm0 0" fill="#ececf1"/><path d="m226 90c-8.289062 0-15 6.710938-15 15v45h-60v-45c0-8.289062-6.710938-15-15-15s-15 6.710938-15 15v120c0 8.289062 6.710938 15 15 15s15-6.710938 15-15v-45h60v45c0 8.289062 6.710938 15 15 15s15-6.710938 15-15v-120c0-8.289062-6.710938-15-15-15zm0 0" fill="#ececf1"/><g fill="#e2e2e7"><path d="m316 240h-30c-8.289062 0-15-6.710938-15-15v-120c0-8.289062 6.710938-15 15-15h30c41.351562 0 75 33.648438 75 75s-33.648438 75-75 75zm-15-30h15c24.8125 0 45-20.1875 45-45s-20.1875-45-45-45h-15zm0 0"/><path d="m391 435c0 8.398438-6.597656 15-15 15h-120v-30h120c8.402344 0 15 6.597656 15 15zm0 0"/></g></svg>